<?xml version="1.0" standalone="no"?><!DOCTYPE svg PUBLIC "-//W3C//DTD SVG 1.1//EN" "http://www.w3.org/Graphics/SVG/1.1/DTD/svg11.dtd"><svg t="1715083998056" class="icon" viewBox="0 0 1024 1024" version="1.1" xmlns="http://www.w3.org/2000/svg" p-id="4343" xmlns:xlink="http://www.w3.org/1999/xlink" width="200" height="200"><path d="M470.16 17.4c0.92-8.2 14.36-7.52 15.12 0.44 5.48 29.28-1.08 62.44 16.52 88.36 13.16 18.56 37.52 19.36 57.92 21.8 7.84 0.24 7.44 14.72-0.44 14.48-12.4 2.08-25.76 0.92-37.04 7.36-15.92 7.96-24.28 25.2-28 41.84-4.72 21.36-5.68 43.32-8.8 64.92 38.6 50.72 51.16 114.68 63.52 175.72 2.88 11.08 4.52 24.8 15.2 31.28 7.36 3.12 12.12-5.24 13.48-11.16 4.12-17.28 1.88-35.32-1.36-52.52-9.6-50.24-28.36-98.44-53.32-142.96-5.16-9.44-11.72-18.24-15.28-28.48 1.88-1.76 5.64-5.24 7.52-7 9 11 17.52 22.4 24.96 34.52 10.4-42.44 35.48-83.52 74.44-105.04 26.32-14.72 63.12-12 84.04 10.8 10.04 10.56 13.44 25.08 14.76 39.16 34.4-6.68 71.24-8.12 104.32 5.08 17.88 7.08 34.16 19.16 44.16 35.84 5.56 10.44 16.16 16.12 24.92 23.52 43.68 39.2 49.52 117.32 4.6 157.8-13.8 12.08-9.64 32.48-10.68 48.76-0.28 38.64 5.8 83.44-21.96 114.88-37.28 40.88-101.84 45.12-150.44 23.64-13.08 20.52-25.28 45.28-17.96 70.08 8.52 30.04 38.2 46.64 51.2 74.08 5.28 12.32 5.12 29.72-5.36 39.16-1.84-0.64-5.56-1.96-7.4-2.6-4.96-12.76 5.48-30.04-6.36-41.4-18.56-19.36-38.68-39.16-46.64-65.64-5.64-16.84-3-35.04 2.8-51.48-9.24-14-18.96-27.64-29.04-41.04-6.28 7.52-11.92 17-21.88 20.04-8.44 3-16.4-2.48-23.96-5.4-8.28 70.32 27.32 134.16 40.84 201.24 21.2 14.56 49 26.32 74.24 15 31.84-13.8 46.36-47.4 68.32-71.88 4.48-6.72 18.24-10.36 18.36 1.2-11.68 25.52-27.2 49.16-38.76 74.8-7.68 18.2-6.8 40.96 5.92 56.72 9.12 13.6 23.28 22.28 34.88 33.44 4.2 6.24-4.16 14.64-10.48 10.28-18.68-8.48-37.64-22.36-59.36-16.64-35.6 9.12-55.4 43.04-78.8 68.4-6.16 7.2-17.2 24.36-25.72 9.88 11.68-36.88 41.04-68.36 41.56-108.72 1.28-21.08-12.24-38.92-28-51.24-2.2 36.44-17.92 77.16-53.56 92.64-27.48 12.48-61.76-2.6-73.52-29.68-11.68-22.6-5.88-53.92 16.32-67.76 10.72-7.32 24.16-5.72 36.24-4.04 7.8-31-3.52-62.12-9-92.52 2.16 0.44 6.56 1.28 8.72 1.72 13.04 32.12 19.08 67.72 13.72 102.28 6.04 11.92 11.76 26.52 4.68 39.32-6.76 14.2-29 18-38.84 5.16-2.96-12.08 11.32-10.76 18.4-6.56 4.28-9.16 8.72-22.96-0.52-30.44-15.4-10.84-38.4 3-38.8 21.12-3.24 20.32 9.24 42.44 29.64 47.64 20.32 6.08 41.6-5.8 52.64-22.72 15.64-23.52 21.52-53.4 15.48-81.04-8.12-39.52-27.36-75.84-34.8-115.6-8.08-36.96-6.24-75-3.6-112.4-0.52-16.56 0.4-36.72-12.96-48.8-8.64-8.08-22.4-1.6-25.08 8.92-11.88 39.44-8.76 81.32-3.04 121.52-2.12 0.04-6.4 0.16-8.52 0.2-12.36-36.76-6.12-75.96-7.04-113.88-0.88-22.2 4.28-46.2-6.28-66.8-5.48-11.56-22-6.88-26.44 3.04-27.04 53.24-37.2 113.08-41.64 172.08 0.64 5.8-4.28 8.52-9.32 6.44-4.92-18.04-2.12-37.08-1.8-55.52-14.64 32.12-35.32 64.04-33.96 100.68 1.68 22.28 11.88 48.08 34.72 56.04 20.76 8.04 46.64-3.8 53-25.4 6.12-17.6-1.4-43.2-21.6-47.2-12.16-3.6-28.24 11.68-18.24 22.84 5.08 5.16 13.2 15.44 2 19.24-23.28-3.88-28.6-37.96-9.84-50.8 21.28-17.12 53.84-2.24 62 21.92 14.36 34.36-12.96 75-49.2 78.4-7.32 39.84-37.52 72.68-35.68 114.72-12.88 2.32-12.16-13.04-11.36-21.56 4.56-33.64 27.28-60.96 36.04-93.36-13.56-3.52-26.08-9.96-36.12-19.72-2.04 30.4-18.12 57.2-35.72 81.2-21.04 28.2-34.68 63.76-29.8 99.32 3.44 25 21.12 49.48 46.56 55.2 20.48 5.24 45.52-3.04 53.96-23.6 8.92-17.32 0.48-41.6-18.44-47.72-16.12-6.24-36.8 12.76-28.6 28.96 5.56 6.72 20.84 14.4 8.6 23.08-22.96-4.6-34.84-35.96-18.56-53.64 14.44-20.16 46.32-20.08 62.44-2 21.12 20.48 17.44 57.56-4.36 76.12-18.44 17.28-47.4 21.32-70.16 10.56-29.68-13.68-48.24-46.04-48.4-78.28-1.04-38.2 16.88-73.92 39.32-103.72 16.84-22.24 31.64-47.92 32.36-76.52-1.88-12.36-9.08-23.36-9.88-36-2.72-30.88 10.8-59.76 16.64-89.52-8.12-8.8-15-18.6-20.92-28.96-9.16 11.76-18.24 23.64-25.36 36.8 8.04 18 11.04 39 3.32 57.64-12.96 32.8-42.6 54.2-62.96 81.92-8.48 11.44-15.32 26.04-11.2 40.56 4.88 18 21.04 28.96 33.12 41.96-3.04 3.56-6.68 6.08-10.96 7.56-26.24-15.24-44.96-48-34.88-78.32 14.92-39.6 59.48-59 72.88-99.56 7.96-25.16-3.96-50.64-17.6-71.36-37.6 16.36-82.32 17.6-119.6-0.4-22.68-10.76-41.52-30.72-48.12-55.28-9.88-37.76-1.36-77.12-6.32-115.4-0.36-6.92-4.84-12.32-9.64-16.84-47-42.92-37.52-127.68 13.36-163.6 16.8-10.04 22.44-30.96 39.4-41.04 48.04-33.08 112.52-25.48 163.92-4.36 15.96-29.6 53.12-41.2 84.68-33.72-5.72-10.68-11.44-22.4-22.56-28.44-12.04-7.44-26.64-6.52-40.04-8.88-7.96-0.08-8.44-15.16 0.04-14.64 20.36-2.28 44.64-3.48 57.56-22.04 17.48-26.04 10.6-59.24 16.52-88.48m-26.8 117.88c18.04 12.8 30.04 32.36 34.32 53.92 4.28-21.52 15.92-41.8 34.84-53.6-16.76-7.76-28.8-22.56-34.8-39.84-6.24 16.92-17.8 31.72-34.36 39.52m189.52 25.84c-17.76 5.28-31.96 18.12-44.08 31.56-19.32 22.4-34.04 49.84-37.64 79.48 3.28 15.08 10.92 29.2 17.6 43.12 6.36 10.08 17.52 1.44 19.72-7.16 10.44-27.16 24.96-53.52 47.44-72.6 7.92-7.4 17.68-13.52 22.72-23.44-0.36-10.8-15.32-8.28-22.32-6.28-27.04 9.96-43.72 35.96-53.8 61.64-1.6 0-4.84-0.08-6.48-0.08-1.96-17.64 9.36-34.04 19.4-47.76 15.52-19.52 42.04-35.92 67.44-26.32 7.12 3.04 13.52 7.68 20.68 10.68 12.24-3.76 11.84-20.12 5.28-28.76-12.52-17.16-36.88-19.52-55.96-14.08M387.2 220.32c52.92 32.36 78.08 93.52 89.36 152 2.64 15.12 9.76 34.6 27.44 36.48 10.92 0.36 14.28-12.2 14.2-20.92 0.2-65.6-39.2-126.32-90.96-164.24 0.12-1.8 0.4-5.4 0.52-7.2 15.68-2.68 28.16 11.08 39.76 19.6-1.84-11.92-3.4-23.92-4.76-35.92-25.76-15.36-59.32-3.32-75.56 20.2m-171.8 11.36c-15.28 9.56-24.84 25.44-39.16 36.12-37.68 29.36-50.16 87.24-24.88 128.48 9.68 18.16 28.2 30.48 48.68 32.56-23.32-31.44-36.88-73.76-23.64-112.04 1.72 0.12 5.16 0.4 6.92 0.56 1.16 14.28-2.88 28.68 0.52 42.88 5.4 29.92 19.84 60.8 47.12 76.48 12.04 7.48 26.28 9.44 39.56 13.56 3.36 4.48-1.48 10.8-6.68 9.96-18.8 1.92-35.12-8.44-50.36-17.84-10.96-1.6-22.08-2-33-4.04 4 31.16 1.2 62.64 3.72 93.92 2.2 26.92 17.68 53.36 42.76 64.84 29.68 13.72 64.68 13.72 95.76 4.88 34.52-10.48 55.36-47.04 54.8-81.8-2.56-24.64-19.88-44.44-38.52-59.24-12.76-9.6-25.76-22.44-43.08-20.64-40.72 0.76-78.24-32.32-83.44-72.56 1.88-0.76 5.6-2.28 7.48-3.08 9.96 33.28 37.6 62.92 74.28 63.44-30.6-29.48-50.92-70.48-49.68-113.6 1.96 0.4 5.88 1.12 7.84 1.52 5.56 17.2 6.6 35.88 14.96 52.24 11.64 30.76 44.32 45.44 73.56 54.64 19.76 4.64 43.52 12.36 60.92-2.28-33.36-22.8-64.24-53.32-76.12-92.96-0.92-9.12-10.24-26.24 2.6-29.92 13.04 23.52 17.4 52.96 38.96 71.08 17.84 14.36 41 25.8 64.44 22.08 16.16-4.64 19.16-24.32 18.44-38.68-2.8-30.68-14.2-60.76-33.08-85.2-21.2-27.52-53.36-44.76-86.84-52.4-38.44-8.64-81.4-5.2-114.84 17.04m392.96 76.4c-9.32 21.24-0.84 45.6 12.2 63.24 15.2 19.36 45.44 19.64 64.12 5.36 24.72-16.72 28.68-48.56 40.32-73.88 1.8 1.4 5.36 4.12 7.16 5.48-11.44 43.24-27.72 89.44-65.4 116.88 23.56 7.92 50.72 7.84 72-6.16 33.32-20.88 50.48-59.72 56.2-97.4 0.8-4.92 4.08-7.4 9.8-7.44 1.28 43.24-19 84.32-49.64 113.96 35.76-0.68 63.8-28.96 73.36-61.88 2.08 0.2 6.24 0.56 8.32 0.76-4.16 34.16-31.6 64.12-65.16 71.48-13.64 3.24-29.44-1.24-41.28 7.92-21.64 15.08-45.36 31.72-54.52 57.68-8.28 28.52 0.56 61.6 22.8 81.52 24.96 22.84 61.72 24.68 93.64 20.68 30.32-3.6 59.6-23.32 68.48-53.48 10.48-37.24 2.32-76.52 8-114.48-10.64 2.16-21.44 3.28-32.24 3.12-16.16 12.48-35.68 20.76-56.48 18.92-1.08-3.36-2.12-6.68-3.12-10.04 21.2-4.04 43.28-10.64 58.52-26.84 25.68-27.36 35.28-67.04 30-103.68 2.2-7.52 10.84-0.92 9.96 4.4 8.6 36.72-4.28 75-26.08 104.68 15.88-2.2 31.4-9.16 41.32-22.16 26.8-32.56 26.68-82.08 3.08-116.36-10-16.6-27.52-26.12-39.84-40.64-26.04-29.48-67.04-42.2-105.56-39.64-59.56 3.52-119.6 40.24-139.96 98m73.36 533.96c15.04 27.52 10.36 61.16-3.04 88.32 19.8-22.96 48.92-40.28 80.16-37.24-14.84-20.6-16.76-47.76-8.28-71.28-18.24 17.12-44.04 25.76-68.84 20.2zM790.52 102.2c6.24-9.48 20.04 1.04 14.04 9.8-6.16 9.48-21.12-1.36-14.04-9.8z" p-id="4344"></path><path d="M325.84 125.8c11.12-6.08 17.2 15.8 4.2 16.08-9.32 2.04-13.32-13.24-4.2-16.08zM86.08 178.6c8.4-8.24 20.36 8.48 9.76 13.64-8.04 6.36-18.56-7.84-9.76-13.64zM968.68 197.08c4.76-3.8 12.64-3 14.24 3.48 4.16 7.56-8.4 15.76-13.32 9.04-3.96-3.12-3.44-8.72-0.92-12.52zM207.64 475.04c11.28 7.56 30.8 8.76 33 24.92 1.96 9.72-0.52 24.72-12.6 26-14.68-2.8-12.12-21.16-13.36-32.36-2.84-5.68-13.72-11.92-7.04-18.56zM290.32 493.56c-5-5.8-11.4-11.92-7.48-20.2 8.28 7.04 18.8 10.08 28 15.48 9.2 10.04 8.92 34-6.96 37.16-14.88-2.56-12.4-21.2-13.56-32.44zM738 489.56c8.56-5.44 18.2-9 26.96-14.2 9.96 5.04-2.52 12.4-5.36 18.16-1.04 11.52 0.92 32.04-15.56 32.52-13.8-5.76-13.44-25.72-6.04-36.48zM813.6 489.6c9.8-6.32 20.8-10.6 31.56-15-1.24 7.32-5.28 13.44-9.92 19.04-1.48 10.12 0.92 23.08-8.12 30.28-4.56 4.56-12.4 1.04-15.08-3.88-4.96-9.28-4.64-21.76 1.56-30.44zM41.84 557.84c3.92-4.36 12.92-4.4 14.64 2.04 3.92 6.52-5.08 15.52-11.28 10.92-5.16-1.92-5.92-8.68-3.36-12.96zM77.36 611.32c-2.56-6.32 6.56-7.96 10-10.8 17.68 21.12 34.4 43.04 52.44 63.84 14.32 16.56 38.12 25.92 59.56 19 14.88-3.32 27.44-12.28 41.2-18.28 6.96-3.88 14.08 9.64 6.52 13.24-18.36 14.52-39.64 31.84-39.28 57.64 0.68 38.56 26.64 70 40.8 104.36 4.4 6.12-1.68 13.44-8.44 12.64-29.96-26.12-48.68-66.56-87.24-81.92-23.52-9.08-46.8 3.84-66.84 15.08-6.96 5.12-16.36-7.56-8.72-12.36 19.64-15.8 42.92-34 43.4-61.68-0.44-38.28-29.96-66.92-43.4-100.76m54.76 69.04c8.6 23.56 6.76 50.76-8.04 71.44 31.44-3.4 60.44 13.8 80.32 36.92-13.32-27.24-18.28-60.76-3.28-88.36-24.76 5.6-50.68-2.88-69-20zM549.84 682.32c3.8-3.04 10.2-1.16 12 3.4 4.52 6.72-5.24 15.8-11.68 11.08-5.56-2.68-6.08-11.72-0.32-14.48zM829.88 694.24c7.88-9.56 20.92 8.52 9.68 13.44-7.96 6.04-18.08-7.56-9.68-13.44zM920.96 845.72c4.56-3.56 12.48-2.72 13.96 3.6 3.08 6.12-4.44 14-10.64 10.72-6.24-1.36-7.04-10.04-3.32-14.32zM150 902.24c9.76-5.76 17.6 10.56 7.76 15.2-9.8 5.44-17.72-10.92-7.76-15.2z" p-id="4345"></path></svg>