<?xml version="1.0" standalone="no"?><!DOCTYPE svg PUBLIC "-//W3C//DTD SVG 1.1//EN" "http://www.w3.org/Graphics/SVG/1.1/DTD/svg11.dtd"><svg height="1024" node-id="1" sillyvg="true" template-height="1024" template-width="1024" version="1.1" viewBox="0 0 1024 1024" width="1024" xmlns="http://www.w3.org/2000/svg" xmlns:xlink="http://www.w3.org/1999/xlink"><defs node-id="22"></defs><g node-id="24"><path d="M 914.10 708.00 L 913.80 713.00 L 912.90 718.10 L 911.30 723.10 L 909.20 728.20 L 906.30 733.40 L 903.10 738.10 L 899.30 742.80 L 894.80 747.70 L 889.50 752.60 L 883.50 757.60 L 875.90 763.10 L 867.30 768.60 L 857.60 774.20 L 846.60 779.80 L 835.70 784.80 L 823.70 789.80 L 810.70 794.70 L 796.40 799.60 L 767.40 808.00 L 735.20 815.70 L 701.80 822.20 L 666.00 827.60 L 641.80 830.60 L 616.80 833.00 L 591.00 835.00 L 565.10 836.40 L 538.90 837.20 L 512.20 837.50 L 485.50 837.20 L 459.20 836.40 L 433.40 835.00 L 407.60 833.00 L 382.60 830.60 L 358.40 827.60 L 322.60 822.20 L 289.20 815.70 L 257.00 808.00 L 228.00 799.60 L 213.70 794.70 L 200.70 789.80 L 188.70 784.80 L 177.80 779.80 L 166.80 774.20 L 157.10 768.60 L 148.50 763.10 L 140.90 757.60 L 134.90 752.60 L 129.60 747.70 L 125.10 742.80 L 121.30 738.10 L 118.10 733.40 L 115.20 728.20 L 113.10 723.10 L 111.50 718.10 L 110.60 713.00 L 110.30 708.00 L 110.60 703.00 L 111.50 697.90 L 113.10 692.90 L 115.20 687.80 L 118.10 682.60 L 121.30 677.90 L 125.10 673.10 L 129.60 668.30 L 134.90 663.40 L 140.90 658.40 L 148.50 652.90 L 157.10 647.40 L 166.80 641.80 L 177.80 636.10 L 188.70 631.10 L 200.70 626.20 L 213.70 621.30 L 228.00 616.40 L 257.00 608.00 L 289.20 600.30 L 322.60 593.80 L 358.40 588.40 L 382.60 585.40 L 407.60 583.00 L 433.40 581.00 L 459.20 579.60 L 485.50 578.80 L 512.20 578.50 L 538.90 578.80 L 565.10 579.60 L 591.00 581.00 L 616.80 583.00 L 641.80 585.40 L 666.00 588.40 L 701.80 593.80 L 735.20 600.30 L 767.40 608.00 L 796.40 616.40 L 810.70 621.30 L 823.70 626.20 L 835.70 631.10 L 846.60 636.10 L 857.60 641.80 L 867.30 647.40 L 875.90 652.90 L 883.50 658.40 L 889.50 663.40 L 894.80 668.30 L 899.30 673.10 L 903.10 677.90 L 906.30 682.60 L 909.20 687.80 L 911.30 692.90 L 912.90 697.90 L 913.80 703.00 L 914.10 708.00 Z" fill="#f2f4ff" fill-rule="evenodd" group-id="1" id="椭圆形备份-2" node-id="6" stroke="none" target-height="259" target-width="803.8" target-x="110.3" target-y="578.5"></path><path d="M 350.00 676.00 L 299.00 676.00 L 299.00 541.00 L 162.00 541.00 L 159.40 540.80 L 157.10 540.10 L 154.90 539.10 L 153.00 537.70 L 151.30 536.00 L 149.90 534.10 L 148.90 531.90 L 148.20 529.60 L 148.00 527.00 L 148.00 348.00 L 199.00 348.00 L 199.00 490.00 L 299.00 490.00 L 299.00 348.00 L 350.00 348.00 L 350.00 676.00 Z" fill="#ffffff" fill-rule="evenodd" group-id="1" id="形状结合" node-id="7" stroke="none" target-height="328" target-width="202" target-x="148" target-y="348"></path><path d="M 202.00 345.00 L 202.00 487.00 L 296.00 487.00 L 296.00 345.00 L 353.00 345.00 L 353.00 679.00 L 296.00 679.00 L 296.00 544.00 L 162.00 544.00 L 158.90 543.70 L 156.10 543.00 L 153.50 541.70 L 151.10 540.10 L 149.10 538.10 L 147.40 535.80 L 146.10 533.20 L 145.30 530.40 L 145.00 527.00 L 145.00 345.00 L 202.00 345.00 Z M 196.00 351.00 L 151.00 351.00 L 151.00 527.00 L 151.20 529.00 L 152.50 532.50 L 153.50 534.00 L 156.30 536.40 L 159.80 537.80 L 161.70 538.00 L 302.00 538.00 L 302.00 673.00 L 347.00 673.00 L 347.00 351.00 L 302.00 351.00 L 302.00 493.00 L 196.00 493.00 L 196.00 351.00 Z" fill="#000000" fill-rule="nonzero" group-id="1" id="形状结合" node-id="8" stroke="none" target-height="334" target-width="208" target-x="145" target-y="345"></path><path d="M 846.00 676.00 L 795.00 676.00 L 795.00 541.00 L 658.00 541.00 L 655.40 540.80 L 653.10 540.10 L 650.90 539.10 L 649.00 537.70 L 647.30 536.00 L 645.90 534.10 L 644.90 531.90 L 644.20 529.60 L 644.00 527.00 L 644.00 348.00 L 695.00 348.00 L 695.00 490.00 L 795.00 490.00 L 795.00 348.00 L 846.00 348.00 L 846.00 676.00 Z" fill="#ffffff" fill-rule="evenodd" group-id="1" id="形状结合备份" node-id="9" stroke="none" target-height="328" target-width="202" target-x="644" target-y="348"></path><path d="M 698.00 345.00 L 698.00 487.00 L 792.00 487.00 L 792.00 345.00 L 849.00 345.00 L 849.00 679.00 L 792.00 679.00 L 792.00 544.00 L 658.00 544.00 L 654.90 543.70 L 652.10 543.00 L 649.50 541.70 L 647.10 540.10 L 645.10 538.10 L 643.40 535.80 L 642.10 533.20 L 641.30 530.40 L 641.00 527.00 L 641.00 345.00 L 698.00 345.00 Z M 692.00 351.00 L 647.00 351.00 L 647.00 527.00 L 647.20 529.00 L 648.50 532.50 L 649.50 534.00 L 652.30 536.40 L 655.80 537.80 L 657.70 538.00 L 798.00 538.00 L 798.00 673.00 L 843.00 673.00 L 843.00 351.00 L 798.00 351.00 L 798.00 493.00 L 692.00 493.00 L 692.00 351.00 Z" fill="#000000" fill-rule="nonzero" group-id="1" id="形状结合备份" node-id="10" stroke="none" target-height="334" target-width="208" target-x="641" target-y="345"></path><g node-id="25"><path d="M 559.10 454.70 L 559.10 505.70 L 421.00 578.00 L 421.00 527.00 Z" fill="#0076fc" fill-rule="evenodd" group-id="1,2" id="矩形备份-10" node-id="11" stroke="none" target-height="123.29999" target-width="138.09998" target-x="421" target-y="454.7"></path></g><g node-id="26"><path d="M 562.10 507.50 L 418.00 583.00 L 418.00 525.20 L 562.10 449.70 L 562.10 507.50 Z M 556.10 503.90 L 556.10 459.60 L 424.00 528.80 L 424.00 573.00 L 556.10 503.90 Z" fill="#000000" fill-rule="nonzero" group-id="1,3" id="矩形备份-10" node-id="12" stroke="none" target-height="133.29999" target-width="144.09998" target-x="418" target-y="449.7"></path></g><path d="M 547.00 676.00 L 396.00 676.00 L 396.00 348.00 L 598.00 348.00 L 598.00 676.00 L 547.00 676.00 Z M 447.00 399.00 L 447.00 625.00 L 547.00 625.00 L 547.00 399.00 L 447.00 399.00 Z" fill="#ffffff" fill-rule="evenodd" group-id="1" id="形状结合" node-id="13" stroke="none" target-height="328" target-width="202" target-x="396" target-y="348"></path><path d="M 601.00 345.00 L 601.00 679.00 L 393.00 679.00 L 393.00 345.00 L 601.00 345.00 Z M 595.00 673.00 L 595.00 351.00 L 399.00 351.00 L 399.00 673.00 L 595.00 673.00 Z M 444.00 396.00 L 550.00 396.00 L 550.00 628.00 L 444.00 628.00 L 444.00 396.00 Z M 450.00 402.00 L 450.00 622.00 L 544.00 622.00 L 544.00 402.00 L 450.00 402.00 Z" fill="#000000" fill-rule="nonzero" group-id="1" id="形状结合" node-id="14" stroke="none" target-height="334" target-width="208" target-x="393" target-y="345"></path><path d="M 408.60 760.20 L 408.40 762.70 L 407.70 765.10 L 406.50 767.20 L 404.90 769.20 L 403.00 770.80 L 400.80 771.90 L 398.40 772.60 L 396.00 772.90 L 393.50 772.60 L 391.10 771.90 L 388.90 770.80 L 387.00 769.20 L 385.40 767.20 L 384.30 765.10 L 383.50 762.70 L 383.30 760.20 L 383.50 757.70 L 384.30 755.40 L 385.40 753.20 L 387.00 751.30 L 388.90 749.70 L 391.10 748.50 L 393.50 747.80 L 396.00 747.50 L 398.40 747.80 L 400.80 748.50 L 403.00 749.70 L 404.90 751.30 L 406.50 753.20 L 407.70 755.40 L 408.40 757.70 L 408.60 760.20 Z" fill="#ffffff" fill-rule="evenodd" group-id="1" id="椭圆形备份-5" node-id="15" stroke="none" target-height="25.400024" target-width="25.300018" target-x="383.3" target-y="747.5"></path><path d="M 937.20 537.50 L 939.50 538.10 L 941.20 539.80 L 941.60 540.90 L 941.80 552.90 L 954.00 553.10 L 955.10 553.60 L 956.70 555.20 L 957.30 557.50 L 957.10 559.50 L 956.70 560.60 L 955.10 562.20 L 954.00 562.70 L 941.80 562.90 L 941.60 575.00 L 941.20 576.00 L 939.50 577.70 L 937.20 578.30 L 935.20 578.10 L 934.10 577.70 L 932.50 576.00 L 932.10 575.00 L 931.90 562.90 L 919.90 562.70 L 918.80 562.20 L 917.20 560.60 L 916.60 558.30 L 916.70 556.30 L 917.20 555.20 L 918.80 553.60 L 919.90 553.10 L 931.90 552.90 L 932.10 540.90 L 932.50 539.80 L 934.10 538.10 L 935.20 537.70 L 937.20 537.50 Z" fill="#0076fc" fill-rule="evenodd" group-id="1" id="形状结合备份" node-id="16" stroke="none" target-height="40.799988" target-width="40.700012" target-x="916.6" target-y="537.5"></path><path d="M 937.20 537.50 L 939.50 538.10 L 941.20 539.80 L 941.60 540.90 L 941.80 552.90 L 954.00 553.10 L 955.10 553.60 L 956.70 555.20 L 957.30 557.50 L 957.10 559.50 L 956.70 560.60 L 955.10 562.20 L 954.00 562.70 L 941.80 562.90 L 941.60 575.00 L 941.20 576.00 L 939.50 577.70 L 937.20 578.30 L 935.20 578.10 L 934.10 577.70 L 932.50 576.00 L 932.10 575.00 L 931.90 562.90 L 919.90 562.70 L 918.80 562.20 L 917.20 560.60 L 916.60 558.30 L 916.70 556.30 L 917.20 555.20 L 918.80 553.60 L 919.90 553.10 L 931.90 552.90 L 932.10 540.90 L 932.50 539.80 L 934.10 538.10 L 935.20 537.70 L 937.20 537.50 Z M 937.20 539.80 L 935.60 540.00 L 934.80 540.50 L 934.20 542.10 L 934.20 555.20 L 921.10 555.20 L 919.50 555.90 L 918.80 557.50 L 919.00 559.20 L 919.50 559.90 L 921.10 560.60 L 934.20 560.60 L 934.20 573.70 L 934.80 575.30 L 936.40 576.00 L 938.10 575.80 L 938.80 575.30 L 939.50 573.70 L 939.50 560.60 L 952.80 560.60 L 954.40 559.90 L 955.00 558.30 L 954.90 556.60 L 954.40 555.90 L 953.70 555.40 L 952.80 555.20 L 939.50 555.20 L 939.50 542.10 L 938.80 540.50 L 937.20 539.80 Z" fill="#0076fc" fill-rule="nonzero" group-id="1" id="形状结合备份" node-id="17" stroke="none" target-height="40.799988" target-width="40.700012" target-x="916.6" target-y="537.5"></path><path d="M 757.80 139.10 L 762.30 139.90 L 766.00 142.10 L 768.80 145.40 L 769.70 147.30 L 770.50 151.80 L 769.70 156.20 L 767.50 159.90 L 764.20 162.70 L 760.10 164.20 L 757.80 164.40 L 755.50 164.20 L 753.40 163.60 L 749.60 161.40 L 746.90 158.10 L 745.90 156.20 L 745.20 151.80 L 745.90 147.30 L 746.90 145.40 L 749.60 142.10 L 753.40 139.90 L 757.80 139.10 Z M 757.80 142.40 L 754.50 143.00 L 753.10 143.60 L 751.20 145.10 L 749.70 147.00 L 749.00 148.50 L 748.40 151.80 L 749.00 155.00 L 749.70 156.50 L 751.20 158.40 L 753.10 159.90 L 754.50 160.60 L 757.80 161.10 L 761.10 160.60 L 762.60 159.90 L 764.50 158.40 L 765.90 156.50 L 766.60 155.00 L 767.20 151.80 L 766.60 148.50 L 765.90 147.00 L 764.50 145.10 L 762.60 143.60 L 761.10 143.00 L 757.80 142.40 Z" fill="#000000" fill-rule="nonzero" group-id="1" id="椭圆形备份-2" node-id="18" stroke="none" target-height="25.299988" target-width="25.299988" target-x="745.2" target-y="139.1"></path><path d="M 290.00 256.40 L 289.60 260.10 L 288.70 263.50 L 287.20 266.70 L 285.20 269.50 L 282.70 272.00 L 279.90 274.00 L 276.70 275.50 L 273.30 276.40 L 269.60 276.80 L 265.90 276.40 L 262.50 275.50 L 259.30 274.00 L 256.40 272.00 L 254.00 269.50 L 252.00 266.70 L 250.50 263.50 L 249.50 260.10 L 249.20 256.40 L 249.50 252.70 L 250.50 249.30 L 252.00 246.10 L 254.00 243.20 L 256.40 240.80 L 259.30 238.80 L 262.50 237.30 L 265.90 236.30 L 269.60 236.00 L 273.30 236.30 L 276.70 237.30 L 279.90 238.80 L 282.70 240.80 L 285.20 243.20 L 287.20 246.10 L 288.70 249.30 L 289.60 252.70 L 290.00 256.40 Z" fill="#0076fc" fill-rule="evenodd" group-id="1" id="椭圆形备份-5" node-id="19" stroke="none" target-height="40.799988" target-width="40.800003" target-x="249.2" target-y="236"></path><path d="M 269.60 236.00 L 273.30 236.30 L 276.70 237.30 L 279.90 238.80 L 282.70 240.80 L 285.20 243.20 L 287.20 246.10 L 288.70 249.30 L 289.60 252.70 L 290.00 256.40 L 289.60 260.10 L 288.70 263.50 L 287.20 266.70 L 285.20 269.50 L 282.70 272.00 L 279.90 274.00 L 276.70 275.50 L 273.30 276.40 L 269.60 276.80 L 265.90 276.40 L 262.50 275.50 L 259.30 274.00 L 256.40 272.00 L 254.00 269.50 L 252.00 266.70 L 250.50 263.50 L 249.50 260.10 L 249.20 256.40 L 249.50 252.70 L 250.50 249.30 L 252.00 246.10 L 254.00 243.20 L 256.40 240.80 L 259.30 238.80 L 262.50 237.30 L 265.90 236.30 L 269.60 236.00 Z M 269.60 238.30 L 266.30 238.60 L 263.30 239.40 L 260.40 240.80 L 257.90 242.60 L 255.80 244.70 L 254.00 247.20 L 252.60 250.10 L 251.80 253.10 L 251.50 256.40 L 251.80 259.70 L 252.60 262.70 L 254.00 265.50 L 255.80 268.10 L 257.90 270.20 L 260.40 272.00 L 263.30 273.30 L 266.30 274.20 L 269.60 274.50 L 272.90 274.20 L 275.90 273.30 L 278.70 272.00 L 281.30 270.20 L 283.40 268.10 L 285.20 265.50 L 286.60 262.70 L 287.40 259.70 L 287.70 256.40 L 287.40 253.10 L 286.60 250.10 L 285.20 247.20 L 283.40 244.70 L 281.30 242.60 L 278.70 240.80 L 275.90 239.40 L 272.90 238.60 L 269.60 238.30 Z" fill="#0076fc" fill-rule="nonzero" group-id="1" id="椭圆形备份-5" node-id="20" stroke="none" target-height="40.799988" target-width="40.800003" target-x="249.2" target-y="236"></path></g></svg>